<?xml version="1.0" encoding="UTF-8"?>
<svg xmlns="http://www.w3.org/2000/svg" xmlns:xlink="http://www.w3.org/1999/xlink" width="30px" height="48px" viewBox="0 0 30 47" version="1.1">
<g id="surface1">
<path style=" stroke:none;fill-rule:nonzero;fill:rgb(100%,100%,100%);fill-opacity:1;" d="M 0 0 L 0 42.054688 L 5 42.054688 L 5 39.578125 L 4.996094 39.578125 L 7.5 39.578125 L 7.5 37.105469 L 10 37.105469 L 10 34.628906 L 12.5 34.628906 L 12.5 39.578125 L 15.035156 39.578125 L 15 44.527344 L 17.5 44.527344 L 17.5 47 L 22.5 47 L 22.5 44.527344 L 25 44.527344 L 25 39.578125 L 22.460938 39.578125 L 22.5 34.628906 L 20 34.628906 L 20 32.15625 L 30 32.15625 L 30 27.210938 L 27.5 27.210938 L 27.5 27.214844 L 27.5 24.734375 L 25 24.734375 L 25 22.261719 L 22.5 22.261719 L 22.5 19.789062 L 20 19.789062 L 20 17.316406 L 17.5 17.316406 L 17.5 14.839844 L 15 14.839844 L 15 12.367188 L 12.5 12.367188 L 12.5 9.894531 L 10 9.894531 L 10 7.421875 L 7.5 7.421875 L 7.5 4.945312 L 5 4.945312 L 5 2.472656 L 2.5 2.472656 L 2.5 0 Z M 0 0 "/>
<path style=" stroke:none;fill-rule:nonzero;fill:rgb(0%,0%,0%);fill-opacity:1;" d="M 2.5 4.945312 L 2.5 39.578125 L 5 39.578125 L 5 37.105469 L 7.5 37.105469 L 7.5 34.628906 L 10 34.628906 L 10 32.15625 L 12.5 32.15625 L 12.5 34.628906 L 15 34.628906 L 15 39.578125 L 17.5 39.578125 L 17.5 44.527344 L 22.5 44.527344 L 22.5 39.578125 L 20 39.578125 L 20 34.628906 L 17.5 34.628906 L 17.5 29.683594 L 27.5 29.683594 L 27.5 27.210938 L 25 27.210938 L 25 24.734375 L 22.5 24.734375 L 22.5 22.261719 L 20 22.261719 L 20 19.789062 L 17.5 19.789062 L 17.5 17.316406 L 15 17.316406 L 15 14.839844 L 12.5 14.839844 L 12.5 12.367188 L 10 12.367188 L 10 9.894531 L 7.5 9.894531 L 7.5 7.421875 L 5 7.421875 L 5 4.945312 Z M 2.5 4.945312 "/>
</g>
</svg>
